<mxfile host="app.diagrams.net" agent="Mozilla/5.0 (X11; Linux x86_64; rv:136.0) Gecko/20100101 Firefox/136.0" version="26.2.10">
  <diagram name="第 1 页" id="Za9llq1e_KmNeCq7u92r">
    <mxGraphModel dx="2231" dy="768" grid="1" gridSize="10" guides="1" tooltips="1" connect="1" arrows="1" fold="1" page="1" pageScale="1" pageWidth="827" pageHeight="1169" math="0" shadow="0">
      <root>
        <mxCell id="0" />
        <mxCell id="1" parent="0" />
        <mxCell id="eIeGebLrfUxovTPzi8hf-14" value="" style="endArrow=none;dashed=1;html=1;rounded=0;fillColor=#dae8fc;strokeColor=#6c8ebf;strokeWidth=2;" edge="1" parent="1">
          <mxGeometry width="50" height="50" relative="1" as="geometry">
            <mxPoint x="330" y="550" as="sourcePoint" />
            <mxPoint x="329.65999999999997" y="310" as="targetPoint" />
          </mxGeometry>
        </mxCell>
        <mxCell id="eIeGebLrfUxovTPzi8hf-12" value="" style="endArrow=none;dashed=1;html=1;rounded=0;fillColor=#d5e8d4;strokeColor=#82b366;strokeWidth=2;" edge="1" parent="1">
          <mxGeometry width="50" height="50" relative="1" as="geometry">
            <mxPoint x="278" y="600" as="sourcePoint" />
            <mxPoint x="278" y="310" as="targetPoint" />
          </mxGeometry>
        </mxCell>
        <mxCell id="eIeGebLrfUxovTPzi8hf-11" value="" style="endArrow=none;dashed=1;html=1;rounded=0;fillColor=#dae8fc;strokeColor=#6c8ebf;strokeWidth=2;" edge="1" parent="1">
          <mxGeometry width="50" height="50" relative="1" as="geometry">
            <mxPoint x="220" y="630" as="sourcePoint" />
            <mxPoint x="220" y="310" as="targetPoint" />
          </mxGeometry>
        </mxCell>
        <mxCell id="eIeGebLrfUxovTPzi8hf-2" value="" style="rounded=0;whiteSpace=wrap;html=1;fillColor=#dae8fc;strokeColor=#6c8ebf;" vertex="1" parent="1">
          <mxGeometry x="210" y="330" width="20" height="40" as="geometry" />
        </mxCell>
        <mxCell id="eIeGebLrfUxovTPzi8hf-5" value="" style="rounded=0;whiteSpace=wrap;html=1;fillColor=#d5e8d4;strokeColor=#82b366;" vertex="1" parent="1">
          <mxGeometry x="268" y="396" width="20" height="24" as="geometry" />
        </mxCell>
        <mxCell id="eIeGebLrfUxovTPzi8hf-6" value="" style="rounded=0;whiteSpace=wrap;html=1;fillColor=#dae8fc;strokeColor=#6c8ebf;" vertex="1" parent="1">
          <mxGeometry x="320" y="426" width="20" height="90" as="geometry" />
        </mxCell>
        <mxCell id="eIeGebLrfUxovTPzi8hf-7" value="" style="rounded=0;whiteSpace=wrap;html=1;fillColor=#dae8fc;strokeColor=#6c8ebf;" vertex="1" parent="1">
          <mxGeometry x="210" y="390" width="20" height="140" as="geometry" />
        </mxCell>
        <mxCell id="eIeGebLrfUxovTPzi8hf-8" value="" style="rounded=0;whiteSpace=wrap;html=1;fillColor=#d5e8d4;strokeColor=#82b366;" vertex="1" parent="1">
          <mxGeometry x="268" y="521" width="20" height="30" as="geometry" />
        </mxCell>
        <mxCell id="eIeGebLrfUxovTPzi8hf-9" value="" style="rounded=0;whiteSpace=wrap;html=1;fillColor=#dae8fc;strokeColor=#6c8ebf;" vertex="1" parent="1">
          <mxGeometry x="210" y="573" width="20" height="40" as="geometry" />
        </mxCell>
        <mxCell id="eIeGebLrfUxovTPzi8hf-13" value="" style="rounded=0;whiteSpace=wrap;html=1;fillColor=#e1d5e7;strokeColor=#9673a6;" vertex="1" parent="1">
          <mxGeometry x="210" y="370" width="20" height="20" as="geometry" />
        </mxCell>
        <mxCell id="eIeGebLrfUxovTPzi8hf-15" value="" style="rounded=0;whiteSpace=wrap;html=1;fillColor=#dae8fc;strokeColor=#6c8ebf;fontStyle=1" vertex="1" parent="1">
          <mxGeometry x="387" y="320" width="27" height="20" as="geometry" />
        </mxCell>
        <mxCell id="eIeGebLrfUxovTPzi8hf-16" value="计算操作" style="text;html=1;align=center;verticalAlign=middle;whiteSpace=wrap;rounded=0;fontStyle=1" vertex="1" parent="1">
          <mxGeometry x="414" y="315" width="60" height="30" as="geometry" />
        </mxCell>
        <mxCell id="eIeGebLrfUxovTPzi8hf-18" value="" style="rounded=0;whiteSpace=wrap;html=1;fillColor=#d5e8d4;strokeColor=#82b366;fontStyle=1" vertex="1" parent="1">
          <mxGeometry x="387" y="360" width="27" height="20" as="geometry" />
        </mxCell>
        <mxCell id="eIeGebLrfUxovTPzi8hf-19" value="通信操作" style="text;html=1;align=center;verticalAlign=middle;whiteSpace=wrap;rounded=0;fontStyle=1" vertex="1" parent="1">
          <mxGeometry x="414" y="355" width="60" height="30" as="geometry" />
        </mxCell>
        <mxCell id="eIeGebLrfUxovTPzi8hf-20" value="" style="rounded=0;whiteSpace=wrap;html=1;fillColor=#e1d5e7;strokeColor=#9673a6;" vertex="1" parent="1">
          <mxGeometry x="210" y="553" width="20" height="20" as="geometry" />
        </mxCell>
        <mxCell id="eIeGebLrfUxovTPzi8hf-25" value="" style="rounded=0;whiteSpace=wrap;html=1;fillColor=#e1d5e7;strokeColor=#9673a6;fontStyle=1" vertex="1" parent="1">
          <mxGeometry x="387" y="405" width="27" height="20" as="geometry" />
        </mxCell>
        <mxCell id="eIeGebLrfUxovTPzi8hf-26" value="异步调用操作" style="text;html=1;align=center;verticalAlign=middle;whiteSpace=wrap;rounded=0;fontStyle=1" vertex="1" parent="1">
          <mxGeometry x="414" y="400" width="60" height="30" as="geometry" />
        </mxCell>
        <mxCell id="eIeGebLrfUxovTPzi8hf-27" value="" style="endArrow=none;dashed=1;html=1;rounded=0;fillColor=#dae8fc;strokeColor=#6c8ebf;strokeWidth=2;fontStyle=1" edge="1" parent="1">
          <mxGeometry width="50" height="50" relative="1" as="geometry">
            <mxPoint x="382.5" y="460" as="sourcePoint" />
            <mxPoint x="435.5" y="460" as="targetPoint" />
          </mxGeometry>
        </mxCell>
        <mxCell id="eIeGebLrfUxovTPzi8hf-28" value="计算流" style="text;html=1;align=center;verticalAlign=middle;whiteSpace=wrap;rounded=0;fontStyle=1" vertex="1" parent="1">
          <mxGeometry x="436" y="446" width="60" height="30" as="geometry" />
        </mxCell>
        <mxCell id="eIeGebLrfUxovTPzi8hf-29" value="" style="endArrow=none;dashed=1;html=1;rounded=0;fillColor=#d5e8d4;strokeColor=#82b366;strokeWidth=2;fontStyle=1" edge="1" parent="1">
          <mxGeometry width="50" height="50" relative="1" as="geometry">
            <mxPoint x="382.5" y="490" as="sourcePoint" />
            <mxPoint x="435.5" y="490" as="targetPoint" />
          </mxGeometry>
        </mxCell>
        <mxCell id="eIeGebLrfUxovTPzi8hf-30" value="通信流" style="text;html=1;align=center;verticalAlign=middle;whiteSpace=wrap;rounded=0;fontStyle=1" vertex="1" parent="1">
          <mxGeometry x="436" y="476" width="60" height="30" as="geometry" />
        </mxCell>
        <mxCell id="eIeGebLrfUxovTPzi8hf-31" value="" style="endArrow=classic;html=1;rounded=0;exitX=1;exitY=1;exitDx=0;exitDy=0;entryX=0;entryY=0;entryDx=0;entryDy=0;" edge="1" parent="1" source="eIeGebLrfUxovTPzi8hf-13" target="eIeGebLrfUxovTPzi8hf-5">
          <mxGeometry width="50" height="50" relative="1" as="geometry">
            <mxPoint x="260" y="510" as="sourcePoint" />
            <mxPoint x="310" y="460" as="targetPoint" />
          </mxGeometry>
        </mxCell>
        <mxCell id="eIeGebLrfUxovTPzi8hf-32" value="" style="endArrow=classic;html=1;rounded=0;exitX=1;exitY=1;exitDx=0;exitDy=0;entryX=0;entryY=0;entryDx=0;entryDy=0;" edge="1" parent="1" source="eIeGebLrfUxovTPzi8hf-5" target="eIeGebLrfUxovTPzi8hf-6">
          <mxGeometry width="50" height="50" relative="1" as="geometry">
            <mxPoint x="290" y="397" as="sourcePoint" />
            <mxPoint x="330" y="405" as="targetPoint" />
          </mxGeometry>
        </mxCell>
        <mxCell id="eIeGebLrfUxovTPzi8hf-33" value="" style="endArrow=classic;html=1;rounded=0;exitX=0;exitY=1;exitDx=0;exitDy=0;entryX=1;entryY=0;entryDx=0;entryDy=0;" edge="1" parent="1" source="eIeGebLrfUxovTPzi8hf-6" target="eIeGebLrfUxovTPzi8hf-8">
          <mxGeometry width="50" height="50" relative="1" as="geometry">
            <mxPoint x="300" y="430" as="sourcePoint" />
            <mxPoint x="330" y="436" as="targetPoint" />
          </mxGeometry>
        </mxCell>
        <mxCell id="eIeGebLrfUxovTPzi8hf-34" value="" style="endArrow=classic;html=1;rounded=0;exitX=0;exitY=1;exitDx=0;exitDy=0;entryX=1;entryY=0;entryDx=0;entryDy=0;" edge="1" parent="1" source="eIeGebLrfUxovTPzi8hf-8" target="eIeGebLrfUxovTPzi8hf-20">
          <mxGeometry width="50" height="50" relative="1" as="geometry">
            <mxPoint x="330" y="526" as="sourcePoint" />
            <mxPoint x="300" y="531" as="targetPoint" />
          </mxGeometry>
        </mxCell>
        <mxCell id="eIeGebLrfUxovTPzi8hf-35" value="" style="endArrow=none;dashed=1;html=1;rounded=0;fillColor=#dae8fc;strokeColor=#6c8ebf;strokeWidth=2;" edge="1" parent="1" source="eIeGebLrfUxovTPzi8hf-37">
          <mxGeometry width="50" height="50" relative="1" as="geometry">
            <mxPoint x="120" y="665" as="sourcePoint" />
            <mxPoint x="120" y="324" as="targetPoint" />
            <Array as="points">
              <mxPoint x="120" y="314" />
            </Array>
          </mxGeometry>
        </mxCell>
        <mxCell id="eIeGebLrfUxovTPzi8hf-41" value="" style="endArrow=none;dashed=1;html=1;rounded=0;fillColor=#dae8fc;strokeColor=#6c8ebf;strokeWidth=2;" edge="1" parent="1" target="eIeGebLrfUxovTPzi8hf-37">
          <mxGeometry width="50" height="50" relative="1" as="geometry">
            <mxPoint x="120" y="750" as="sourcePoint" />
            <mxPoint x="120" y="345" as="targetPoint" />
          </mxGeometry>
        </mxCell>
        <mxCell id="eIeGebLrfUxovTPzi8hf-37" value="" style="rounded=0;whiteSpace=wrap;html=1;fillColor=#dae8fc;strokeColor=#6c8ebf;" vertex="1" parent="1">
          <mxGeometry x="110" y="330" width="20" height="370" as="geometry" />
        </mxCell>
        <mxCell id="eIeGebLrfUxovTPzi8hf-42" value="&lt;font style=&quot;font-size: 14px;&quot;&gt;&lt;b&gt;原计算流程&lt;/b&gt;&lt;/font&gt;" style="text;html=1;align=center;verticalAlign=middle;whiteSpace=wrap;rounded=0;" vertex="1" parent="1">
          <mxGeometry x="70" y="280" width="100" height="30" as="geometry" />
        </mxCell>
        <mxCell id="eIeGebLrfUxovTPzi8hf-43" value="&lt;font style=&quot;font-size: 14px;&quot;&gt;&lt;b&gt;异步调用数据并行&lt;/b&gt;&lt;/font&gt;" style="text;html=1;align=center;verticalAlign=middle;whiteSpace=wrap;rounded=0;" vertex="1" parent="1">
          <mxGeometry x="208" y="280" width="132" height="30" as="geometry" />
        </mxCell>
        <mxCell id="eIeGebLrfUxovTPzi8hf-44" value="" style="endArrow=classic;html=1;rounded=0;" edge="1" parent="1">
          <mxGeometry width="50" height="50" relative="1" as="geometry">
            <mxPoint x="50" y="340" as="sourcePoint" />
            <mxPoint x="50" y="620" as="targetPoint" />
          </mxGeometry>
        </mxCell>
        <mxCell id="eIeGebLrfUxovTPzi8hf-45" value="&lt;b&gt;时间线&lt;/b&gt;" style="text;html=1;align=center;verticalAlign=middle;whiteSpace=wrap;rounded=0;" vertex="1" parent="1">
          <mxGeometry x="-10" y="456" width="60" height="30" as="geometry" />
        </mxCell>
      </root>
    </mxGraphModel>
  </diagram>
</mxfile>
